<svg clip-rule="evenodd" fill-rule="evenodd" stroke-linejoin="round" stroke-miterlimit="2" viewBox="0 0 1322 550" xmlns="http://www.w3.org/2000/svg"><g transform="translate(-211.773 -121.008)"><path d="m253.691 292.155h423.398v329.772h-423.398z" fill="#fff"/><g fill="#1fa4ff"><path d="m537.916 171.008h-156.475v-20c0-16.557-13.443-30-30-30-16.558 0-30 13.443-30 30v20.933c-61.764 7.564-109.668 60.266-109.668 124.067v250c0 68.989 56.011 125 125 125h250c68.99 0 125-56.011 125-125v-250c0-65.236-50.082-118.868-113.857-124.509v-20.491c0-16.557-13.443-30-30-30-16.558 0-30 13.443-30 30zm-278.238 370.849c0 43.684 35.467 79.151 79.152 79.151h241.697c43.685 0 79.151-35.467 79.151-79.151v-220.844h-400z"/><path d="m.054-.564h.15v-.146h-.15zm0 .564h.15v-.51h-.15z" fill-rule="nonzero" transform="matrix(291.667 0 0 291.667 280.524 572.384)"/><path d="m.265.015c.134 0 .222-.084.222-.212v-.015h-.151v.019c0 .046-.029.073-.071.073-.053 0-.079-.03-.079-.087v-.096c0-.057.027-.087.079-.087.042 0 .071.027.071.073v.019h.151v-.015c0-.128-.088-.212-.223-.212-.142 0-.228.086-.228.221v.098c0 .135.086.221.229.221z" fill-rule="nonzero" transform="matrix(291.667 0 0 291.667 348.774 572.384)"/><path d="m.238.015c.111 0 .215-.055.215-.171 0-.189-.273-.142-.273-.206 0-.018.021-.035.057-.035.033 0 .058.015.058.04v.01h.148v-.01c0-.097-.083-.168-.205-.168-.121 0-.206.07-.206.173 0 .185.272.134.272.205 0 .021-.025.034-.06.034-.038 0-.07-.016-.07-.045v-.012h-.149v.012c0 .1.085.173.213.173z" fill-rule="nonzero" transform="matrix(291.667 0 0 291.667 494.025 572.384)"/><path d="m.266-.518c-.138 0-.212.085-.212.215v.098c0 .13.072.217.217.217.123 0 .203-.062.203-.174h-.085v.006c0 .062-.047.095-.12.095-.089 0-.131-.049-.131-.143v-.023h.338v-.102c0-.113-.081-.189-.21-.189zm-.128.219v-.004c0-.092.04-.142.131-.142.079 0 .121.039.121.117v.029z" fill-rule="nonzero" transform="matrix(291.667 0 0 291.667 732.605 572.384)"/><path d="m.369-.505-.133.418-.137-.418h-.087l.166.505h.112l.166-.505z" fill-rule="nonzero" transform="matrix(291.667 0 0 291.667 878.735 572.384)"/><path d="m.266-.518c-.138 0-.212.085-.212.215v.098c0 .13.072.217.217.217.123 0 .203-.062.203-.174h-.085v.006c0 .062-.047.095-.12.095-.089 0-.131-.049-.131-.143v-.023h.338v-.102c0-.113-.081-.189-.21-.189zm-.128.219v-.004c0-.092.04-.142.131-.142.079 0 .121.039.121.117v.029z" fill-rule="nonzero" transform="matrix(291.667 0 0 291.667 1006.775 572.384)"/><path d="m.307-.518c-.068 0-.125.022-.162.068l-.015-.055h-.057v.505h.085v-.325c.01-.077.06-.112.132-.112.08 0 .125.045.125.144v.293h.084v-.295c0-.157-.073-.223-.192-.223z" fill-rule="nonzero" transform="matrix(291.667 0 0 291.667 1153.775 572.384)"/><path d="m.274-.081c-.069 0-.103-.032-.103-.113v-.231h.138v-.08h-.138v-.148h-.085v.148h-.068v.08h.068v.25c0 .121.057.175.17.175h.062v-.081z" fill-rule="nonzero" transform="matrix(291.667 0 0 291.667 1312.145 572.384)"/><path d="m.247.012c.107 0 .199-.051.199-.154 0-.189-.309-.12-.309-.229 0-.041.04-.071.108-.071.072 0 .111.034.111.088v.01h.084v-.01c0-.098-.072-.164-.196-.164-.116 0-.191.06-.191.153 0 .183.309.11.309.229 0 .047-.049.072-.111.072-.08 0-.126-.035-.126-.093v-.009h-.084v.01c0 .101.076.168.206.168z" fill-rule="nonzero" transform="matrix(291.667 0 0 291.667 1403.445 572.384)"/></g></g></svg>